# 3ds Max Wavefront OBJ Exporter v0.99 - (c)2007 guruware
# File Created: 20.10.2023 09:44:32

#
# object Walls
#

v  -63.2918 94.4882 115.2668
v  -63.2918 94.4882 33.4723
v  -64.3796 94.4882 33.4723
v  -64.3796 94.4882 116.3546
v  33.0556 94.4882 115.2668
v  -2.3680 94.4882 115.2668
v  -2.3680 94.4882 116.3546
v  33.0556 94.4882 116.3546
v  -2.3680 108.3876 42.8263
v  -64.3796 108.3876 33.4723
v  -64.3796 108.3876 -36.1966
v  -2.3680 108.3876 -45.6446
v  62.0681 94.4882 115.2668
v  63.1559 94.4882 116.3546
v  33.0556 -0.0000 47.5033
v  33.0556 -0.0000 115.2668
v  62.0681 -0.0000 115.2668
v  62.0681 -0.0000 52.0876
v  -2.3680 108.3876 116.3546
v  -64.3796 108.3876 116.3546
v  -2.3680 81.8897 115.2668
v  -63.2918 81.8897 115.2668
v  62.0681 81.8897 52.0876
v  62.0681 81.8897 115.2668
v  62.0681 94.4882 52.0876
v  33.0556 81.8898 -117.9911
v  62.0681 81.8898 -117.9911
v  62.0681 94.4882 -117.9911
v  33.0556 94.4882 -117.9911
v  -63.2918 81.8898 -36.1966
v  -63.2918 81.8898 -117.9911
v  -63.2918 94.4882 -117.9911
v  -63.2918 94.4882 -36.1966
v  -63.2918 81.8897 33.4723
v  -63.2918 0.0000 -117.9911
v  -63.2918 0.0000 -36.1966
v  -2.3680 0.0000 -45.6447
v  -2.3680 0.0000 -117.9911
v  62.0681 81.8898 -54.9991
v  62.0681 94.4882 -54.9990
v  63.1559 108.3876 -54.9990
v  33.0556 108.3876 -50.3687
v  33.0556 108.3876 -119.0789
v  63.1559 108.3876 -119.0789
v  62.0681 0.0000 -54.9991
v  33.0556 0.0000 -50.3687
v  63.1559 94.4882 52.0876
v  63.1559 94.4882 -54.9990
v  -2.3680 108.3876 -119.0789
v  63.1559 94.4882 -119.0789
v  33.0556 0.0000 -117.9911
v  62.0681 0.0000 -117.9911
v  -63.2918 -0.0000 33.4723
v  -69.5910 0.0000 -36.1966
v  -69.5910 -0.0000 33.4723
v  -63.2918 37.7953 33.4723
v  -69.5910 37.7953 33.4723
v  -69.5910 81.8897 33.4723
v  -69.5910 81.8898 -36.1966
v  -69.5910 37.7953 -36.1966
v  62.0681 37.7953 -117.9911
v  62.0681 37.7953 -54.9991
v  -63.2918 37.7953 -36.1966
v  -63.2918 37.7953 115.2668
v  -63.2918 37.7953 -117.9911
v  33.0556 37.7953 -117.9911
v  62.0681 37.7953 52.0876
v  62.0681 37.7953 115.2668
v  -2.3680 37.7953 115.2668
v  -2.3680 37.7953 -117.9911
v  -2.3680 81.8898 -117.9911
v  -2.3680 -0.0000 42.8263
v  33.0556 108.3876 47.5033
v  -2.3680 94.4882 -117.9911
v  33.0556 81.8897 115.2668
v  -63.2918 -0.0000 115.2668
v  -2.3680 -0.0000 115.2668
v  -64.3796 108.3876 -119.0789
v  33.0556 108.3876 116.3546
v  33.0556 37.7953 115.2668
v  -64.3796 94.4882 -119.0789
v  -64.3796 94.4882 -36.1966
v  63.1559 108.3876 52.0876
v  63.1559 108.3876 116.3546
v  33.0556 94.4882 -119.0789
v  -2.3680 94.4882 -119.0789
v  -2.3680 -0.0000 122.2926
v  33.0556 -0.0000 122.2926
# 88 vertices

vn 0.3015 0.9045 -0.3015
vn 0.7071 0.7071 0.0000
vn 0.5773 0.5773 -0.5773
vn 0.0000 0.7071 -0.7071
vn 0.0000 -1.0000 -0.0000
vn 0.7071 -0.7071 -0.0000
vn -0.3015 0.9045 -0.3015
vn -0.5773 0.5773 -0.5773
vn 0.0000 1.0000 0.0000
vn 0.0000 -0.7071 -0.7071
vn 0.5773 -0.5773 -0.5773
vn 0.0000 0.0000 -1.0000
vn 0.7071 0.0000 -0.7071
vn -1.0000 0.0000 -0.0000
vn -0.7071 0.0000 -0.7071
vn -0.7071 0.7071 0.0000
vn 0.0000 -0.0000 1.0000
vn -0.7071 -0.0000 0.7071
vn -0.3015 0.9045 0.3015
vn 0.0000 0.7071 0.7071
vn 0.9045 -0.3015 0.3015
vn 0.7071 -0.0000 0.7071
vn 0.3015 0.9045 0.3015
vn 0.9045 -0.3015 -0.3015
vn -0.7071 -0.7071 -0.0000
vn 0.0000 -0.7071 0.7071
vn -0.5773 -0.5773 0.5773
vn -0.5773 0.5773 0.5773
vn 0.5773 -0.5773 0.5773
vn 0.5773 0.5773 0.5773
vn -0.5773 -0.5773 -0.5773
# 31 vertex normals

vt 0.7081 0.9932 0.0000
vt 0.7076 0.8238 0.0000
vt 0.7104 0.8238 0.0000
vt 0.7111 0.9962 0.0000
vt 0.2073 0.5387 0.0000
vt 0.1333 0.5387 0.0000
vt 0.1333 0.5364 0.0000
vt 0.2073 0.5364 0.0000
vt 0.3732 0.1614 0.0000
vt 0.5016 0.1807 0.0000
vt 0.5018 0.3232 0.0000
vt 0.3734 0.3426 0.0000
vt 0.2680 0.5387 0.0000
vt 0.2702 0.5364 0.0000
vt 0.7254 0.1454 0.0000
vt 0.7254 0.0038 0.0000
vt 0.7860 0.0038 0.0000
vt 0.7860 0.1358 0.0000
vt 0.3748 0.0074 0.0000
vt 0.5033 0.0089 0.0000
vt 0.1333 0.5650 0.0000
vt 0.0061 0.5650 0.0000
vt 0.0061 0.5387 0.0000
vt 0.1782 0.1436 0.0000
vt 0.1776 0.0067 0.0000
vt 0.2048 0.0062 0.0000
vt 0.2046 0.1440 0.0000
vt 0.0667 0.8013 0.0000
vt 0.0061 0.8013 0.0000
vt 0.0061 0.7750 0.0000
vt 0.0667 0.7750 0.0000
vt 0.6808 0.6713 0.0000
vt 0.6810 0.5018 0.0000
vt 0.7072 0.5018 0.0000
vt 0.7076 0.6712 0.0000
vt 0.6820 0.9934 0.0000
vt 0.6808 0.8238 0.0000
vt 0.5241 0.4911 0.0000
vt 0.5241 0.3202 0.0000
vt 0.6514 0.3399 0.0000
vt 0.6514 0.4911 0.0000
vt 0.1768 0.4969 0.0000
vt 0.1780 0.3598 0.0000
vt 0.2044 0.3594 0.0000
vt 0.2041 0.4974 0.0000
vt 0.2364 0.3601 0.0000
vt 0.2996 0.3518 0.0000
vt 0.3004 0.4978 0.0000
vt 0.2366 0.4992 0.0000
vt 0.7860 0.3595 0.0000
vt 0.7254 0.3498 0.0000
vt 0.2074 0.1440 0.0000
vt 0.2072 0.3594 0.0000
vt 0.3746 0.4967 0.0000
vt 0.2065 0.4998 0.0000
vt 0.7254 0.4911 0.0000
vt 0.7860 0.4911 0.0000
vt 0.5241 0.1747 0.0000
vt 0.5110 0.3202 0.0000
vt 0.5110 0.1747 0.0000
vt 0.3568 0.6792 0.0000
vt 0.2778 0.6792 0.0000
vt 0.2778 0.6661 0.0000
vt 0.3568 0.6661 0.0000
vt 0.4621 0.6661 0.0000
vt 0.4489 0.6661 0.0000
vt 0.4489 0.5206 0.0000
vt 0.4621 0.5206 0.0000
vt 0.3568 0.5206 0.0000
vt 0.0832 0.4945 0.0000
vt 0.0853 0.3611 0.0000
vt 0.3568 0.5074 0.0000
vt 0.4489 0.5074 0.0000
vt 0.5906 0.9941 0.0000
vt 0.5893 0.8245 0.0000
vt 0.5894 0.6712 0.0000
vt 0.5896 0.5016 0.0000
vt 0.0667 0.8934 0.0000
vt 0.0061 0.8934 0.0000
vt 0.0857 0.1422 0.0000
vt 0.0849 0.0086 0.0000
vt 0.1333 0.6571 0.0000
vt 0.0061 0.6571 0.0000
vt 0.2679 0.8934 0.0000
vt 0.1407 0.8934 0.0000
vt 0.1407 0.8013 0.0000
vt 0.2679 0.8013 0.0000
vt 0.6514 0.1551 0.0000
vt 0.2994 0.1520 0.0000
vt 0.1407 0.7750 0.0000
vt 0.2679 0.7750 0.0000
vt 0.2073 0.5650 0.0000
vt 0.5241 0.0038 0.0000
vt 0.6514 0.0038 0.0000
vt 0.5033 0.4954 0.0000
vt 0.3008 0.0060 0.0000
vt 0.2680 0.5650 0.0000
vt 0.2680 0.6571 0.0000
vt 0.2073 0.6571 0.0000
vt 0.7101 0.4989 0.0000
vt 0.7104 0.6712 0.0000
vt 0.1407 0.9724 0.0000
vt 0.0667 0.9724 0.0000
vt 0.2680 0.7361 0.0000
vt 0.2073 0.7361 0.0000
vt 0.2680 0.9724 0.0000
vt 0.1333 0.7361 0.0000
vt 0.0061 0.7361 0.0000
vt 0.0072 0.1421 0.0000
vt 0.0058 0.0096 0.0000
vt 0.0061 0.9724 0.0000
vt 0.5110 0.6711 0.0000
vt 0.5113 0.5015 0.0000
vt 0.5122 0.9947 0.0000
vt 0.5110 0.8250 0.0000
vt 0.2778 0.5074 0.0000
vt 0.2778 0.5206 0.0000
vt 0.0038 0.4928 0.0000
vt 0.0068 0.3605 0.0000
vt 0.4489 0.6792 0.0000
vt 0.2365 0.1434 0.0000
vt 0.2372 0.0044 0.0000
vt 0.7390 0.4987 0.0000
vt 0.7400 0.6713 0.0000
vt 0.0667 0.7727 0.0000
vt 0.0038 0.7727 0.0000
vt 0.0038 0.7437 0.0000
vt 0.0667 0.7437 0.0000
vt 0.2072 0.0038 0.0000
vt 0.0038 0.5364 0.0000
vt 0.0038 0.5074 0.0000
vt 0.1333 0.5074 0.0000
vt 0.7400 0.8237 0.0000
vt 0.7400 0.9962 0.0000
vt 0.2073 0.5074 0.0000
vt 0.2702 0.7727 0.0000
vt 0.1407 0.7727 0.0000
vt 0.1407 0.7437 0.0000
vt 0.2702 0.7437 0.0000
vt 0.2702 0.5074 0.0000
vt 0.4697 0.5814 0.0000
vt 0.4697 0.5074 0.0000
vt 0.4844 0.5074 0.0000
vt 0.4844 0.5814 0.0000
# 144 texture coords

o Walls
g Walls
s off
f 1/1/1 2/2/2 3/3/2 
f 3/3/2 4/4/3 1/1/1 
f 5/5/4 6/6/4 7/7/4 
f 7/7/4 8/8/4 5/5/4 
f 9/9/5 10/10/6 11/11/6 
f 11/11/6 12/12/5 9/9/5 
f 13/13/7 5/5/4 8/8/4 
f 8/8/4 14/14/8 13/13/7 
f 15/15/9 16/16/9 17/17/9 
f 17/17/9 18/18/9 15/15/9 
f 9/9/5 19/19/10 20/20/11 
f 20/20/11 10/10/6 9/9/5 
f 21/21/12 22/22/13 1/23/1 
f 1/23/1 6/6/4 21/21/12 
f 23/24/14 24/25/15 13/26/7 
f 13/26/7 25/27/16 23/24/14 
f 26/28/17 27/29/18 28/30/19 
f 28/30/19 29/31/20 26/28/17 
f 30/32/21 31/33/22 32/34/23 
f 32/34/23 33/35/2 30/32/21 
f 22/36/13 34/37/24 2/2/2 
f 2/2/2 1/1/1 22/36/13 
f 35/38/9 36/39/9 37/40/9 
f 37/40/9 38/41/9 35/38/9 
f 27/42/18 39/43/14 40/44/16 
f 40/44/16 28/45/19 27/42/18 
f 39/43/14 23/24/14 25/27/16 
f 25/27/16 40/44/16 39/43/14 
f 41/46/25 42/47/5 43/48/26 
f 43/48/26 44/49/27 41/46/25 
f 15/15/9 18/18/9 45/50/9 
f 45/50/9 46/51/9 15/15/9 
f 40/44/16 25/27/16 47/52/16 
f 47/52/16 48/53/16 40/44/16 
f 12/12/5 49/54/26 43/48/26 
f 43/48/26 42/47/5 12/12/5 
f 28/45/19 40/44/16 48/53/16 
f 48/53/16 50/55/28 28/45/19 
f 51/56/9 46/51/9 45/50/9 
f 45/50/9 52/57/9 51/56/9 
f 33/35/2 2/2/2 34/37/24 
f 34/37/24 30/32/21 33/35/2 
f 53/58/9 36/39/9 54/59/9 
f 54/59/9 55/60/9 53/58/9 
f 56/61/13 53/62/13 55/63/13 
f 55/63/13 57/64/13 56/61/13 
f 34/65/24 58/66/11 59/67/29 
f 59/67/29 30/68/21 34/65/24 
f 57/64/13 60/69/22 59/67/29 
f 59/67/29 58/66/11 57/64/13 
f 38/41/9 37/40/9 46/51/9 
f 46/51/9 51/56/9 38/41/9 
f 61/70/18 62/71/14 39/43/14 
f 39/43/14 27/42/18 61/70/18 
f 63/72/22 30/73/21 59/67/29 
f 59/67/29 60/69/22 63/72/22 
f 64/74/13 56/75/13 34/37/24 
f 34/37/24 22/36/13 64/74/13 
f 63/76/22 65/77/22 31/33/22 
f 31/33/22 30/32/21 63/76/22 
f 66/78/17 61/79/18 27/29/18 
f 27/29/18 26/28/17 66/78/17 
f 67/80/14 68/81/15 24/25/15 
f 24/25/15 23/24/14 67/80/14 
f 69/82/12 64/83/13 22/22/13 
f 22/22/13 21/21/12 69/82/12 
f 65/84/22 70/85/17 71/86/17 
f 71/86/17 31/87/22 65/84/22 
f 72/88/9 37/40/9 36/39/9 
f 36/39/9 53/58/9 72/88/9 
f 42/47/5 73/89/5 9/9/5 
f 9/9/5 12/12/5 42/47/5 
f 31/87/22 71/86/17 74/90/20 
f 74/90/20 32/91/23 31/87/22 
f 75/92/12 21/21/12 6/6/4 
f 6/6/4 5/5/4 75/92/12 
f 53/58/9 76/93/9 77/94/9 
f 77/94/9 72/88/9 53/58/9 
f 12/12/5 11/11/6 78/95/29 
f 78/95/29 49/54/26 12/12/5 
f 73/89/5 79/96/10 19/19/10 
f 19/19/10 9/9/5 73/89/5 
f 24/97/15 75/92/12 5/5/4 
f 5/5/4 13/13/7 24/97/15 
f 68/98/15 80/99/12 75/92/12 
f 75/92/12 24/97/15 68/98/15 
f 70/85/17 66/78/17 26/28/17 
f 26/28/17 71/86/17 70/85/17 
f 37/40/9 72/88/9 15/15/9 
f 15/15/9 46/51/9 37/40/9 
f 71/86/17 26/28/17 29/31/20 
f 29/31/20 74/90/20 71/86/17 
f 72/88/9 77/94/9 16/16/9 
f 16/16/9 15/15/9 72/88/9 
f 33/35/2 32/34/23 81/100/30 
f 81/100/30 82/101/2 33/35/2 
f 38/102/17 51/103/17 66/78/17 
f 66/78/17 70/85/17 38/102/17 
f 17/104/15 16/105/12 80/99/12 
f 80/99/12 68/98/15 17/104/15 
f 35/106/22 38/102/17 70/85/17 
f 70/85/17 65/84/22 35/106/22 
f 77/107/12 76/108/13 64/83/13 
f 64/83/13 69/82/12 77/107/12 
f 18/109/14 17/110/15 68/81/15 
f 68/81/15 67/80/14 18/109/14 
f 51/103/17 52/111/18 61/79/18 
f 61/79/18 66/78/17 51/103/17 
f 36/112/22 35/113/22 65/77/22 
f 65/77/22 63/76/22 36/112/22 
f 76/114/13 53/115/13 56/75/13 
f 56/75/13 64/74/13 76/114/13 
f 36/116/22 63/72/22 60/69/22 
f 60/69/22 54/117/22 36/116/22 
f 52/118/18 45/119/14 62/71/14 
f 62/71/14 61/70/18 52/118/18 
f 45/119/14 18/109/14 67/80/14 
f 67/80/14 62/71/14 45/119/14 
f 55/63/13 54/117/22 60/69/22 
f 60/69/22 57/64/13 55/63/13 
f 34/120/24 56/61/13 57/64/13 
f 57/64/13 58/66/11 34/120/24 
f 73/89/5 83/121/25 84/122/31 
f 84/122/31 79/96/10 73/89/5 
f 82/101/2 81/100/30 78/123/29 
f 78/123/29 11/124/6 82/101/2 
f 85/125/20 50/126/28 44/127/27 
f 44/127/27 43/128/26 85/125/20 
f 47/52/16 14/129/8 84/122/31 
f 84/122/31 83/121/25 47/52/16 
f 7/7/4 4/130/3 20/131/11 
f 20/131/11 19/132/10 7/7/4 
f 50/55/28 48/53/16 41/46/25 
f 41/46/25 44/49/27 50/55/28 
f 48/53/16 47/52/16 83/121/25 
f 83/121/25 41/46/25 48/53/16 
f 4/4/3 3/3/2 10/133/6 
f 10/133/6 20/134/11 4/4/3 
f 3/3/2 82/101/2 11/124/6 
f 11/124/6 10/133/6 3/3/2 
f 8/8/4 7/7/4 19/132/10 
f 19/132/10 79/135/10 8/8/4 
f 81/136/30 86/137/20 49/138/26 
f 49/138/26 78/139/29 81/136/30 
f 14/14/8 8/8/4 79/135/10 
f 79/135/10 84/140/31 14/14/8 
f 86/137/20 85/125/20 43/128/26 
f 43/128/26 49/138/26 86/137/20 
f 32/91/23 74/90/20 86/137/20 
f 86/137/20 81/136/30 32/91/23 
f 6/6/4 1/23/1 4/130/3 
f 4/130/3 7/7/4 6/6/4 
f 2/2/2 33/35/2 82/101/2 
f 82/101/2 3/3/2 2/2/2 
f 25/27/16 13/26/7 14/129/8 
f 14/129/8 47/52/16 25/27/16 
f 74/90/20 29/31/20 85/125/20 
f 85/125/20 86/137/20 74/90/20 
f 29/31/20 28/30/19 50/126/28 
f 50/126/28 85/125/20 29/31/20 
f 73/89/5 42/47/5 41/46/25 
f 41/46/25 83/121/25 73/89/5 
f 16/141/9 77/142/9 87/143/9 
f 87/143/9 88/144/9 16/141/9 
# 164 faces

