# 3ds Max Wavefront OBJ Exporter v0.99 - (c)2007 guruware
# File Created: 20.10.2023 09:45:28

#
# object Frame
#

v  59.7813 79.5125 -52.6218
v  60.0200 79.0364 -52.1457
v  60.0201 79.0364 49.2342
v  59.7813 79.5125 49.7103
v  60.0924 37.8836 -54.9107
v  60.1808 37.7953 -54.9991
v  60.1808 37.7953 52.0876
v  60.0925 37.8836 51.9992
v  60.1808 81.8897 52.0876
v  60.0925 81.8014 51.9993
v  59.3166 79.7270 49.9248
v  59.7813 40.1725 49.7103
v  59.3166 39.9580 49.9248
v  59.7813 40.1725 -52.6218
v  60.0200 40.6487 -52.1457
v  59.3565 81.0066 -54.1159
v  59.4843 81.1143 -54.2236
v  59.4843 38.5707 -54.2236
v  59.3565 38.6784 -54.1159
v  60.4104 78.7690 48.9668
v  62.0681 78.6546 48.8524
v  62.0681 41.0305 48.8524
v  60.4104 40.9161 48.9668
v  59.2093 38.9728 50.9100
v  59.2093 39.8508 50.0321
v  59.2093 39.8508 -52.9436
v  59.2093 38.9728 -53.8215
v  59.5237 38.4629 51.4199
v  59.9159 38.2663 51.6165
v  59.9159 81.4187 51.6165
v  59.5237 81.2221 51.4199
v  59.3165 39.9580 -52.8363
v  59.3565 38.6784 51.2044
v  59.4843 38.5707 51.3122
v  59.4843 81.1143 51.3122
v  59.3565 81.0066 51.2044
v  62.0681 37.7953 52.0876
v  62.0680 37.7953 -54.9991
v  60.0925 81.8014 29.9514
v  60.1808 81.8897 -54.9991
v  60.0924 81.8014 -54.9107
v  59.5237 81.2221 -54.3314
v  59.9158 81.4187 -54.5280
v  59.3165 79.7270 -52.8363
v  59.2093 79.8343 50.0321
v  59.2093 80.7122 50.9100
v  59.2093 80.7122 -53.8215
v  59.2093 79.8343 -52.9436
v  60.0466 81.5683 51.7661
v  60.0465 81.5683 -54.6776
v  62.0680 41.0305 -51.7639
v  60.0466 38.1167 51.7661
v  60.0465 38.1167 -54.6776
v  60.4104 78.7690 -51.8783
v  62.0680 78.6546 -51.7639
v  62.0681 81.8897 52.0876
v  62.0680 81.8897 -54.9991
v  59.5237 38.4629 -54.3314
v  59.9158 38.2663 -54.5280
v  60.4104 40.9161 -51.8783
v  60.0201 40.6487 49.2342
# 61 vertices

vn -0.7176 -0.4924 0.4924
vn -0.8919 -0.3198 0.3198
vn -0.8919 -0.3198 -0.3198
vn -0.7176 -0.4924 -0.4924
vn -0.8884 -0.3246 -0.3246
vn -0.3913 -0.6507 -0.6507
vn -0.3913 -0.6507 0.6507
vn -0.8884 -0.3246 0.3246
vn -0.3913 0.6507 0.6507
vn -0.8884 0.3246 0.3246
vn -0.7410 -0.4748 -0.4748
vn -0.7176 0.4924 -0.4924
vn -0.7410 0.4748 -0.4748
vn -0.7176 0.4924 0.4924
vn -0.8919 0.3198 0.3198
vn -0.8317 0.3926 -0.3926
vn -0.9314 0.2574 -0.2574
vn -0.9314 -0.2574 -0.2574
vn -0.8317 -0.3926 -0.3926
vn -0.4907 -0.6161 -0.6161
vn 0.8888 -0.3240 -0.3240
vn 0.8888 0.3240 -0.3240
vn -0.4907 0.6161 -0.6161
vn -0.9688 -0.1753 0.1753
vn -0.9878 0.1100 -0.1100
vn -0.9878 0.1100 0.1100
vn -0.9688 -0.1753 -0.1753
vn -0.7514 -0.4666 0.4665
vn -0.7790 -0.4433 0.4433
vn -0.7790 0.4433 0.4433
vn -0.7514 0.4665 0.4665
vn -0.7410 0.4748 0.4748
vn -0.8317 -0.3926 0.3926
vn -0.9314 -0.2574 0.2574
vn -0.9314 0.2574 0.2574
vn -0.8317 0.3926 0.3926
vn 0.5773 -0.5773 0.5773
vn 0.5773 -0.5773 -0.5773
vn -0.8824 0.4705 0.0000
vn -0.3913 0.6507 -0.6507
vn -0.8884 0.3246 -0.3246
vn -0.7514 0.4665 -0.4665
vn -0.7790 0.4433 -0.4433
vn -0.7410 -0.4748 0.4748
vn -0.9878 -0.1100 -0.1100
vn -0.9688 0.1753 0.1753
vn -0.9688 0.1753 -0.1753
vn -0.9878 -0.1100 0.1101
vn -0.9700 0.1718 0.1718
vn -0.9700 0.1718 -0.1718
vn 1.0000 0.0000 -0.0000
vn -0.9700 -0.1718 0.1718
vn -0.9700 -0.1718 -0.1718
vn -0.4907 -0.6161 0.6161
vn 0.8888 -0.3240 0.3240
vn 0.5773 0.5773 -0.5773
vn -0.7514 -0.4666 -0.4666
vn -0.7790 -0.4433 -0.4433
vn -0.4907 0.6161 0.6161
vn 0.5773 0.5773 0.5773
vn -0.8919 0.3198 -0.3198
vn 0.8888 0.3240 0.3240
# 62 vertex normals

vt 0.7281 0.9151 0.0000
vt 0.7192 0.9071 0.0000
vt 0.7191 0.4021 0.0000
vt 0.7281 0.3943 0.0000
vt 0.9656 0.3849 0.0000
vt 0.9762 0.3777 0.0000
vt 0.9762 0.9796 0.0000
vt 0.9657 0.9790 0.0000
vt 0.4868 0.7240 0.0000
vt 0.4858 0.7226 0.0000
vt 0.1221 0.7226 0.0000
vt 0.1211 0.7240 0.0000
vt 0.4618 0.6935 0.0000
vt 0.4593 0.6876 0.0000
vt 0.1486 0.6876 0.0000
vt 0.1461 0.6935 0.0000
vt 0.1544 0.8064 0.0000
vt 0.4651 0.8064 0.0000
vt 0.4596 0.8002 0.0000
vt 0.1599 0.8002 0.0000
vt 0.1371 0.8280 0.0000
vt 0.1358 0.8300 0.0000
vt 0.4836 0.8300 0.0000
vt 0.4824 0.8280 0.0000
vt 0.4507 0.6759 0.0000
vt 0.4494 0.6567 0.0000
vt 0.1585 0.6567 0.0000
vt 0.1572 0.6759 0.0000
vt 0.9062 0.9733 0.0000
vt 0.8968 0.9687 0.0000
vt 0.8959 0.4403 0.0000
vt 0.9054 0.4310 0.0000
vt 0.1288 0.7125 0.0000
vt 0.1265 0.7175 0.0000
vt 0.4814 0.7175 0.0000
vt 0.4791 0.7125 0.0000
vt 0.8786 0.9672 0.0000
vt 0.8777 0.4506 0.0000
vt 0.8867 0.4468 0.0000
vt 0.8877 0.9682 0.0000
vt 0.1313 0.7092 0.0000
vt 0.1301 0.7111 0.0000
vt 0.4778 0.7111 0.0000
vt 0.4766 0.7092 0.0000
vt 0.9868 0.9796 0.0000
vt 0.9868 0.3777 0.0000
vt 0.8141 0.6554 0.0000
vt 0.8141 0.3317 0.0000
vt 0.8198 0.3277 0.0000
vt 0.8198 0.9830 0.0000
vt 0.8141 0.9791 0.0000
vt 0.7868 0.9607 0.0000
vt 0.7868 0.3500 0.0000
vt 0.7976 0.3452 0.0000
vt 0.7976 0.9654 0.0000
vt 0.7373 0.9190 0.0000
vt 0.7373 0.3905 0.0000
vt 0.7466 0.3841 0.0000
vt 0.7562 0.3746 0.0000
vt 0.7562 0.9353 0.0000
vt 0.7466 0.9256 0.0000
vt 0.8085 0.3371 0.0000
vt 0.8085 0.9737 0.0000
vt 0.6476 0.4979 0.0000
vt 0.0309 0.4979 0.0000
vt 0.0760 0.5430 0.0000
vt 0.6025 0.5430 0.0000
vt 0.4831 0.7198 0.0000
vt 0.1248 0.7198 0.0000
vt 0.7662 0.9442 0.0000
vt 0.7661 0.3660 0.0000
vt 0.1519 0.8123 0.0000
vt 0.4676 0.8123 0.0000
vt 0.9551 0.3949 0.0000
vt 0.9553 0.9777 0.0000
vt 0.7104 0.4069 0.0000
vt 0.7104 0.9021 0.0000
vt 0.7018 0.9015 0.0000
vt 0.7018 0.4075 0.0000
vt 0.6025 0.8933 0.0000
vt 0.6476 0.9384 0.0000
vt 0.1269 0.8429 0.0000
vt 0.1269 0.8647 0.0000
vt 0.4926 0.8647 0.0000
vt 0.4926 0.8429 0.0000
vt 0.1507 0.8141 0.0000
vt 0.4688 0.8141 0.0000
vt 0.4849 0.8313 0.0000
vt 0.1346 0.8313 0.0000
vt 0.1323 0.8364 0.0000
vt 0.4871 0.8364 0.0000
vt 0.1347 0.7054 0.0000
vt 0.4732 0.7054 0.0000
vt 0.4630 0.6952 0.0000
vt 0.1449 0.6952 0.0000
vt 0.4565 0.7948 0.0000
vt 0.1630 0.7947 0.0000
vt 0.8313 0.9830 0.0000
vt 0.8313 0.3277 0.0000
vt 0.4538 0.6814 0.0000
vt 0.1541 0.6814 0.0000
vt 0.1306 0.8387 0.0000
vt 0.4889 0.8387 0.0000
vt 0.4916 0.8414 0.0000
vt 0.1279 0.8414 0.0000
vt 0.9452 0.9768 0.0000
vt 0.9448 0.4024 0.0000
vt 0.8698 0.9649 0.0000
vt 0.8687 0.4587 0.0000
vt 0.0309 0.9384 0.0000
vt 0.0760 0.8933 0.0000
vt 0.9352 0.9758 0.0000
vt 0.9253 0.9751 0.0000
vt 0.9247 0.4161 0.0000
vt 0.9348 0.4069 0.0000
vt 0.9150 0.4224 0.0000
vt 0.9157 0.9747 0.0000
vt 0.7764 0.3596 0.0000
vt 0.7764 0.9508 0.0000
vt 0.8610 0.9637 0.0000
vt 0.8523 0.9631 0.0000
vt 0.8512 0.4643 0.0000
vt 0.8599 0.4637 0.0000
vt 0.4790 0.8242 0.0000
vt 0.1405 0.8242 0.0000
vt 0.4552 0.7756 0.0000
vt 0.1643 0.7755 0.0000
vt 0.1211 0.7459 0.0000
vt 0.4868 0.7459 0.0000
# 129 texture coords

o Frame
g Frame
s off
f 1/1/1 2/2/2 3/3/3 
f 3/3/3 4/4/4 1/1/1 
f 5/5/5 6/6/6 7/7/7 
f 7/7/7 8/8/8 5/5/5 
f 9/9/9 10/10/10 8/11/8 
f 8/11/8 7/12/7 9/9/9 
f 11/13/11 4/14/4 12/15/12 
f 12/15/12 13/16/13 11/13/11 
f 1/17/1 14/18/14 15/19/15 
f 15/19/15 2/20/2 1/17/1 
f 16/21/16 17/22/17 18/23/18 
f 18/23/18 19/24/19 16/21/16 
f 20/25/20 21/26/21 22/27/22 
f 22/27/22 23/28/23 20/25/20 
f 24/29/24 25/30/25 26/31/26 
f 26/31/26 27/32/27 24/29/24 
f 28/33/28 29/34/29 30/35/30 
f 30/35/30 31/36/31 28/33/28 
f 12/37/12 14/38/14 32/39/32 
f 32/39/32 13/40/13 12/37/12 
f 33/41/33 34/42/34 35/43/35 
f 35/43/35 36/44/36 33/41/33 
f 37/45/37 7/7/7 6/6/6 
f 6/6/6 38/46/38 37/45/37 
f 39/47/39 10/48/10 9/49/9 
f 39/47/39 9/49/9 40/50/40 
f 39/47/39 40/50/40 41/51/41 
f 42/52/42 31/53/31 30/54/30 
f 30/54/30 43/55/43 42/52/42 
f 44/56/44 1/1/1 4/4/4 
f 4/4/4 11/57/11 44/56/44 
f 45/58/45 46/59/46 47/60/47 
f 47/60/47 48/61/48 45/58/45 
f 26/31/26 25/30/25 13/40/13 
f 13/40/13 32/39/32 26/31/26 
f 30/54/30 49/62/49 50/63/50 
f 50/63/50 43/55/43 30/54/30 
f 37/64/51 38/65/51 51/66/51 
f 51/66/51 22/67/51 37/64/51 
f 49/68/49 30/35/30 29/34/29 
f 29/34/29 52/69/52 49/68/49 
f 31/36/31 35/43/35 34/42/34 
f 34/42/34 28/33/28 31/36/31 
f 16/70/16 47/60/47 46/59/46 
f 46/59/46 36/71/36 16/70/16 
f 49/62/49 10/48/10 39/47/39 
f 44/72/44 32/73/32 14/18/14 
f 14/18/14 1/17/1 44/72/44 
f 53/74/53 5/5/5 8/8/8 
f 8/8/8 52/75/52 53/74/53 
f 20/76/20 54/77/54 55/78/55 
f 55/78/55 21/79/21 20/76/20 
f 37/64/51 22/67/51 21/80/51 
f 21/80/51 56/81/51 37/64/51 
f 40/82/40 57/83/56 38/84/38 
f 38/84/38 6/85/6 40/82/40 
f 32/73/32 44/72/44 48/86/48 
f 48/86/48 26/87/26 32/73/32 
f 58/88/57 42/89/42 43/90/43 
f 43/90/43 59/91/58 58/88/57 
f 24/92/24 46/93/46 45/94/45 
f 45/94/45 25/95/25 24/92/24 
f 60/96/59 54/97/54 2/20/2 
f 2/20/2 15/19/15 60/96/59 
f 57/98/56 40/50/40 9/49/9 
f 9/49/9 56/99/60 57/98/56 
f 3/100/3 20/25/20 23/28/23 
f 23/28/23 61/101/61 3/100/3 
f 59/91/58 43/90/43 50/102/50 
f 50/102/50 53/103/53 59/91/58 
f 5/104/5 41/105/41 40/82/40 
f 40/82/40 6/85/6 5/104/5 
f 36/44/36 46/93/46 24/92/24 
f 24/92/24 33/41/33 36/44/36 
f 11/57/11 45/58/45 48/61/48 
f 48/61/48 44/56/44 11/57/11 
f 52/75/52 29/106/29 59/107/58 
f 59/107/58 53/74/53 52/75/52 
f 61/108/61 15/109/15 14/38/14 
f 14/38/14 12/37/12 61/108/61 
f 10/10/10 49/68/49 52/69/52 
f 52/69/52 8/11/8 10/10/10 
f 57/110/51 56/81/51 21/80/51 
f 21/80/51 55/111/51 57/110/51 
f 28/112/28 34/113/34 18/114/18 
f 18/114/18 58/115/57 28/112/28 
f 2/2/2 54/77/54 20/76/20 
f 20/76/20 3/3/3 2/2/2 
f 24/29/24 27/32/27 19/116/19 
f 19/116/19 33/117/33 24/29/24 
f 35/118/35 31/53/31 42/52/42 
f 42/52/42 17/119/17 35/118/35 
f 23/120/23 22/121/22 51/122/62 
f 51/122/62 60/123/59 23/120/23 
f 45/94/45 11/13/11 13/16/13 
f 13/16/13 25/95/25 45/94/45 
f 51/66/51 38/65/51 57/110/51 
f 57/110/51 55/111/51 51/66/51 
f 17/119/17 16/70/16 36/71/36 
f 36/71/36 35/118/35 17/119/17 
f 19/24/19 27/124/27 47/125/47 
f 47/125/47 16/21/16 19/24/19 
f 33/117/33 19/116/19 18/114/18 
f 18/114/18 34/113/34 33/117/33 
f 48/86/48 47/125/47 27/124/27 
f 27/124/27 26/87/26 48/86/48 
f 4/14/4 3/100/3 61/101/61 
f 61/101/61 12/15/12 4/14/4 
f 23/120/23 60/123/59 15/109/15 
f 15/109/15 61/108/61 23/120/23 
f 39/47/39 41/51/41 50/63/50 
f 50/63/50 49/62/49 39/47/39 
f 51/126/62 55/127/55 54/97/54 
f 54/97/54 60/96/59 51/126/62 
f 37/128/37 56/129/60 9/9/9 
f 9/9/9 7/12/7 37/128/37 
f 18/23/18 17/22/17 42/89/42 
f 42/89/42 58/88/57 18/23/18 
f 5/104/5 53/103/53 50/102/50 
f 50/102/50 41/105/41 5/104/5 
f 28/112/28 58/115/57 59/107/58 
f 59/107/58 29/106/29 28/112/28 
# 122 faces

