# 3ds Max Wavefront OBJ Exporter v0.97b - (c)2007 guruware
# File Created: 11.03.2017 22:58:07

#
# object g1
#

v  0.0325 0.0000 -0.0563
v  0.0254 0.7000 -0.0441
v  0.0509 0.7000 -0.0000
v  0.0650 0.0000 -0.0000
v  -0.0325 0.0000 -0.0563
v  -0.0254 0.7000 -0.0441
v  -0.0650 0.0000 -0.0000
v  -0.0509 0.7000 -0.0000
v  -0.0325 0.0000 0.0563
v  -0.0254 0.7000 0.0441
v  0.0325 0.0000 0.0563
v  0.0254 0.7000 0.0441
v  0.0323 1.3295 -0.0337
v  0.0523 1.3291 0.0009
v  -0.0076 1.3303 -0.0337
v  -0.0276 1.3307 0.0009
v  -0.0077 1.3302 0.0354
v  0.0323 1.3294 0.0354
v  0.0415 1.8966 -0.0180
v  0.0567 1.8959 0.0084
v  0.0110 1.8974 -0.0180
v  -0.0042 1.8974 0.0084
v  0.0110 1.8967 0.0349
v  0.0415 1.8959 0.0349
v  0.0435 2.4070 -0.0048
v  0.0554 2.4066 0.0158
v  0.0197 2.4073 -0.0048
v  0.0078 2.4071 0.0158
v  0.0197 2.4067 0.0364
v  0.0435 2.4065 0.0364
v  0.0446 2.8663 0.0085
v  0.0536 2.8659 0.0242
v  0.0265 2.8664 0.0085
v  0.0174 2.8662 0.0242
v  0.0265 2.8658 0.0399
v  0.0446 2.8657 0.0399
v  0.0492 3.2793 0.0130
v  0.0562 3.2791 0.0252
v  0.0351 3.2795 0.0130
v  0.0280 3.2796 0.0252
v  0.0351 3.2794 0.0374
v  0.0491 3.2792 0.0374
v  0.0513 3.6513 0.0176
v  0.0566 3.6512 0.0268
v  0.0406 3.6514 0.0176
v  0.0353 3.6514 0.0268
v  0.0406 3.6513 0.0360
v  0.0513 3.6512 0.0360
v  0.0502 3.9862 0.0243
v  0.0543 3.9861 0.0315
v  0.0418 3.9862 0.0243
v  0.0376 3.9861 0.0315
v  0.0418 3.9860 0.0387
v  0.0502 3.9860 0.0387
# 54 vertices

vn 0.5000 0.0000 -0.8660
vn 1.0000 0.0000 -0.0000
vn -0.5000 0.0000 -0.8660
vn -1.0000 0.0000 -0.0000
vn -0.5000 0.0000 0.8660
vn 0.5000 0.0000 0.8660
vn 0.4999 -0.0086 -0.8660
vn 0.9998 -0.0195 -0.0000
vn -0.4999 0.0110 -0.8660
vn -0.9998 0.0195 0.0000
vn -0.4999 0.0086 0.8660
vn 0.4999 -0.0110 0.8660
vn 0.5001 -0.0007 -0.8660
vn 0.9997 -0.0246 -0.0000
vn -0.4996 0.0239 -0.8659
vn -0.9997 0.0246 0.0000
vn -0.5001 0.0007 0.8660
vn 0.4996 -0.0239 0.8659
vn 0.5002 0.0073 -0.8659
vn 0.9999 -0.0105 0.0002
vn -0.4997 0.0178 -0.8660
vn -0.9999 0.0105 -0.0002
vn -0.5002 -0.0073 0.8659
vn 0.4997 -0.0178 0.8660
vn 0.5003 0.0115 -0.8658
vn 1.0000 -0.0085 0.0002
vn -0.4997 0.0200 -0.8660
vn -1.0000 0.0085 -0.0002
vn -0.5003 -0.0115 0.8658
vn 0.4997 -0.0200 0.8660
vn 0.5001 -0.0058 -0.8660
vn 0.9999 -0.0159 0.0001
vn -0.4998 0.0101 -0.8661
vn -0.9999 0.0159 -0.0001
vn -0.5001 0.0058 0.8660
vn 0.4998 -0.0101 0.8661
vn 0.5001 -0.0014 -0.8660
vn 0.9999 -0.0104 0.0001
vn -0.4998 0.0089 -0.8661
vn -0.9999 0.0104 -0.0001
vn -0.5001 0.0014 0.8660
vn 0.4998 -0.0089 0.8661
vn 0.5002 0.0121 -0.8658
vn 1.0000 -0.0001 0.0002
vn -0.4998 0.0122 -0.8661
vn -1.0000 0.0001 -0.0002
vn -0.5002 -0.0121 0.8658
vn 0.4998 -0.0122 0.8661
# 48 vertex normals

vt 0.5000 0.0000 0.0000
vt 0.5000 1.4420 0.0000
vt 0.0000 1.4420 0.0000
vt 0.0000 0.0000 0.0000
vt 1.0000 0.0000 0.0000
vt 1.0000 1.4420 0.0000
vt 1.5000 0.0000 0.0000
vt 1.5000 1.4420 0.0000
vt 2.0000 0.0000 0.0000
vt 2.0000 1.4420 0.0000
vt 2.5000 0.0000 0.0000
vt 2.5000 1.4420 0.0000
vt 3.0000 0.0000 0.0000
vt 3.0000 1.4420 0.0000
vt 0.5000 3.0981 0.0000
vt 0.0000 3.0981 0.0000
vt 1.0000 3.0981 0.0000
vt 1.5000 3.0981 0.0000
vt 2.0000 3.0981 0.0000
vt 2.5000 3.0981 0.0000
vt 3.0000 3.0981 0.0000
vt 0.5000 5.0199 0.0000
vt 0.0000 5.0199 0.0000
vt 1.0000 5.0199 0.0000
vt 1.5000 5.0199 0.0000
vt 2.0000 5.0199 0.0000
vt 2.5000 5.0199 0.0000
vt 3.0000 5.0199 0.0000
vt 0.5000 7.2637 0.0000
vt 0.0000 7.2637 0.0000
vt 1.0000 7.2637 0.0000
vt 1.5000 7.2637 0.0000
vt 2.0000 7.2637 0.0000
vt 2.5000 7.2637 0.0000
vt 3.0000 7.2637 0.0000
vt 0.5000 9.8793 0.0000
vt 0.0000 9.8793 0.0000
vt 1.0000 9.8793 0.0000
vt 1.5000 9.8793 0.0000
vt 2.0000 9.8793 0.0000
vt 2.5000 9.8793 0.0000
vt 3.0000 9.8793 0.0000
vt 0.5000 12.9437 0.0000
vt 0.0000 12.9437 0.0000
vt 1.0000 12.9437 0.0000
vt 1.5000 12.9437 0.0000
vt 2.0000 12.9437 0.0000
vt 2.5000 12.9437 0.0000
vt 3.0000 12.9437 0.0000
vt 0.5000 16.5386 0.0000
vt 0.0000 16.5386 0.0000
vt 1.0000 16.5386 0.0000
vt 1.5000 16.5386 0.0000
vt 2.0000 16.5386 0.0000
vt 2.5000 16.5386 0.0000
vt 3.0000 16.5386 0.0000
vt 0.5000 20.7498 0.0000
vt 0.0000 20.7498 0.0000
vt 1.0000 20.7498 0.0000
vt 1.5000 20.7498 0.0000
vt 2.0000 20.7498 0.0000
vt 2.5000 20.7498 0.0000
vt 3.0000 20.7498 0.0000
# 63 texture coords

g g1
f 1/1/1 2/2/1 3/3/2 
f 3/3/2 4/4/2 1/1/1 
f 5/5/3 6/6/3 2/2/1 
f 2/2/1 1/1/1 5/5/3 
f 7/7/4 8/8/4 6/6/3 
f 6/6/3 5/5/3 7/7/4 
f 9/9/5 10/10/5 8/8/4 
f 8/8/4 7/7/4 9/9/5 
f 11/11/6 12/12/6 10/10/5 
f 10/10/5 9/9/5 11/11/6 
f 4/13/2 3/14/2 12/12/6 
f 12/12/6 11/11/6 4/13/2 
f 2/2/1 13/15/7 14/16/8 
f 14/16/8 3/3/2 2/2/1 
f 6/6/3 15/17/9 13/15/7 
f 13/15/7 2/2/1 6/6/3 
f 8/8/4 16/18/10 15/17/9 
f 15/17/9 6/6/3 8/8/4 
f 10/10/5 17/19/11 16/18/10 
f 16/18/10 8/8/4 10/10/5 
f 12/12/6 18/20/12 17/19/11 
f 17/19/11 10/10/5 12/12/6 
f 3/14/2 14/21/8 18/20/12 
f 18/20/12 12/12/6 3/14/2 
f 13/15/7 19/22/13 20/23/14 
f 20/23/14 14/16/8 13/15/7 
f 15/17/9 21/24/15 19/22/13 
f 19/22/13 13/15/7 15/17/9 
f 16/18/10 22/25/16 21/24/15 
f 21/24/15 15/17/9 16/18/10 
f 17/19/11 23/26/17 22/25/16 
f 22/25/16 16/18/10 17/19/11 
f 18/20/12 24/27/18 23/26/17 
f 23/26/17 17/19/11 18/20/12 
f 14/21/8 20/28/14 24/27/18 
f 24/27/18 18/20/12 14/21/8 
f 19/22/13 25/29/19 26/30/20 
f 26/30/20 20/23/14 19/22/13 
f 21/24/15 27/31/21 25/29/19 
f 25/29/19 19/22/13 21/24/15 
f 22/25/16 28/32/22 27/31/21 
f 27/31/21 21/24/15 22/25/16 
f 23/26/17 29/33/23 28/32/22 
f 28/32/22 22/25/16 23/26/17 
f 24/27/18 30/34/24 29/33/23 
f 29/33/23 23/26/17 24/27/18 
f 20/28/14 26/35/20 30/34/24 
f 30/34/24 24/27/18 20/28/14 
f 25/29/19 31/36/25 32/37/26 
f 32/37/26 26/30/20 25/29/19 
f 27/31/21 33/38/27 31/36/25 
f 31/36/25 25/29/19 27/31/21 
f 28/32/22 34/39/28 33/38/27 
f 33/38/27 27/31/21 28/32/22 
f 29/33/23 35/40/29 34/39/28 
f 34/39/28 28/32/22 29/33/23 
f 30/34/24 36/41/30 35/40/29 
f 35/40/29 29/33/23 30/34/24 
f 26/35/20 32/42/26 36/41/30 
f 36/41/30 30/34/24 26/35/20 
f 31/36/25 37/43/31 38/44/32 
f 38/44/32 32/37/26 31/36/25 
f 33/38/27 39/45/33 37/43/31 
f 37/43/31 31/36/25 33/38/27 
f 34/39/28 40/46/34 39/45/33 
f 39/45/33 33/38/27 34/39/28 
f 35/40/29 41/47/35 40/46/34 
f 40/46/34 34/39/28 35/40/29 
f 36/41/30 42/48/36 41/47/35 
f 41/47/35 35/40/29 36/41/30 
f 32/42/26 38/49/32 42/48/36 
f 42/48/36 36/41/30 32/42/26 
f 37/43/31 43/50/37 44/51/38 
f 44/51/38 38/44/32 37/43/31 
f 39/45/33 45/52/39 43/50/37 
f 43/50/37 37/43/31 39/45/33 
f 40/46/34 46/53/40 45/52/39 
f 45/52/39 39/45/33 40/46/34 
f 41/47/35 47/54/41 46/53/40 
f 46/53/40 40/46/34 41/47/35 
f 42/48/36 48/55/42 47/54/41 
f 47/54/41 41/47/35 42/48/36 
f 38/49/32 44/56/38 48/55/42 
f 48/55/42 42/48/36 38/49/32 
f 43/50/37 49/57/43 50/58/44 
f 50/58/44 44/51/38 43/50/37 
f 45/52/39 51/59/45 49/57/43 
f 49/57/43 43/50/37 45/52/39 
f 46/53/40 52/60/46 51/59/45 
f 51/59/45 45/52/39 46/53/40 
f 47/54/41 53/61/47 52/60/46 
f 52/60/46 46/53/40 47/54/41 
f 48/55/42 54/62/48 53/61/47 
f 53/61/47 47/54/41 48/55/42 
f 44/56/38 50/63/44 54/62/48 
f 54/62/48 48/55/42 44/56/38 
# 96 faces